<svg xmlns="http://www.w3.org/2000/svg" width="31.5" height="36" viewBox="0 0 31.5 36">
  <path id="Icon_awesome-file-medical-alt" data-name="Icon awesome-file-medical-alt" d="M20.25,9.563V0H6.188A1.683,1.683,0,0,0,4.5,1.688V18H.563A.564.564,0,0,0,0,18.563v1.125a.564.564,0,0,0,.563.563H10.47a.573.573,0,0,1,.506.309l1.4,2.8,3.994-7.995a.562.562,0,0,1,1.005,0l2.44,4.887H24.75a1.125,1.125,0,0,1,0,2.25H18.429l-1.554-3.108-3.994,7.995a.562.562,0,0,1-1.005,0L9.429,22.5H4.5V34.313A1.683,1.683,0,0,0,6.188,36H29.813A1.683,1.683,0,0,0,31.5,34.313V11.25H21.938A1.692,1.692,0,0,1,20.25,9.563Zm10.758-2.18L24.124.492A1.686,1.686,0,0,0,22.929,0H22.5V9h9V8.571A1.682,1.682,0,0,0,31.008,7.383Z"/>
</svg>
