<svg xmlns="http://www.w3.org/2000/svg" width="45" height="36" viewBox="0 0 45 36">
  <path id="Icon_awesome-laptop-medical" data-name="Icon awesome-laptop-medical" d="M16.313,15.75H20.25v3.938a.563.563,0,0,0,.563.563h3.375a.563.563,0,0,0,.563-.562V15.75h3.938a.563.563,0,0,0,.563-.562V11.813a.563.563,0,0,0-.562-.562H24.75V7.313a.563.563,0,0,0-.562-.562H20.813a.563.563,0,0,0-.562.563V11.25H16.313a.563.563,0,0,0-.562.563v3.375A.563.563,0,0,0,16.313,15.75ZM40.5,3.375A3.385,3.385,0,0,0,37.125,0H7.875A3.385,3.385,0,0,0,4.5,3.375V27h36ZM36,22.5H9V4.5H36Zm7.875,6.75H26.827a2.217,2.217,0,0,1-2.3,2.25H20.25a2.389,2.389,0,0,1-2.3-2.25H1.125A1.125,1.125,0,0,0,0,30.375V31.5A4.513,4.513,0,0,0,4.5,36h36A4.513,4.513,0,0,0,45,31.5V30.375A1.125,1.125,0,0,0,43.875,29.25Z"/>
</svg>
